<svg xmlns="http://www.w3.org/2000/svg" xmlns:xlink="http://www.w3.org/1999/xlink" version="1.1" id="Layer_1" x="0px" y="0px" viewBox="0 0 45 45" style="enable-background:new 0 0 45 45;" xml:space="preserve" class="mdl-js">
<style type="text/css">
	.st0{fill:#3B5998;}
	.st1{fill:#FFFFFF;}
</style>
<g>
	<g>
		<path class="st0" d="M22.4,3h1.3c1.4,0.1,2.9,0.3,4.3,0.6c3.5,0.9,6.8,2.9,9.3,5.6c2.1,2.3,3.6,5,4.4,8c0.4,1.6,0.6,3.2,0.7,4.8    v0.6c-0.1,2.2-0.5,4.5-1.3,6.6c-1.3,3.5-3.7,6.5-6.7,8.7c-1.4,1-3,1.9-4.7,2.5c0-4.3,0-8.6,0-12.9c1.3,0,2.6,0,3.9,0    c0.2-1.6,0.3-3.2,0.5-4.8c-1.5,0-2.9,0-4.4,0c0-0.9,0-1.8,0-2.7c0-0.5,0-1,0.4-1.4c0.4-0.3,1-0.3,1.5-0.4c0.8,0,1.6,0,2.5,0    c0-1.6,0-3.2,0-4.9c-1.4,0-2.7,0-4.1,0c-1.4,0-2.9,0.2-4,1.1C25,15.1,24.4,16,24.1,17c-0.4,1.2-0.3,2.5-0.3,3.8c0,0.6,0,1.2,0,1.8    c-1,0-1.9,0-2.9,0c0,1.6,0,3.2,0,4.8c1,0,1.9,0,2.9,0c0,4.7,0,9.4,0,14.1c-0.2,0-0.3,0-0.5,0h-0.6c-2.2,0-4.3-0.4-6.3-1.1    c-3.3-1.2-6.3-3.4-8.5-6.1c-1.2-1.5-2.1-3.1-2.8-4.8c-0.9-2.1-1.3-4.4-1.4-6.7v-0.7c0-1.9,0.3-3.7,0.9-5.5c0.6-2.1,1.6-4,2.9-5.7    c1.8-2.4,4.1-4.3,6.7-5.7c1.8-0.9,3.7-1.6,5.7-1.9C20.7,3.1,21.5,3,22.4,3z"/>
	</g>
	<g>
		<path class="st1" d="M29.9,13.4c1.4,0,2.7,0,4.1,0c0,1.6,0,3.2,0,4.9c-0.8,0-1.6,0-2.5,0c-0.5,0-1.1,0-1.5,0.4    c-0.4,0.3-0.4,0.9-0.4,1.4c0,0.9,0,1.8,0,2.7c1.5,0,2.9,0,4.4,0c-0.2,1.6-0.3,3.2-0.5,4.8c-1.3,0-2.6,0-3.9,0c0,4.3,0,8.6,0,12.9    c-1.9,0.7-3.8,1.1-5.8,1.2c0-4.7,0-9.4,0-14.1c-1,0-1.9,0-2.9,0c0-1.6,0-3.2,0-4.8c1,0,1.9,0,2.9,0c0-0.6,0-1.2,0-1.8    c0-1.3,0-2.6,0.3-3.8c0.3-1,0.9-2,1.8-2.6C27,13.7,28.5,13.4,29.9,13.4z"/>
	</g>
</g>
</svg>