<svg xmlns="http://www.w3.org/2000/svg" xmlns:xlink="http://www.w3.org/1999/xlink" version="1.1" id="Layer_1" x="0px" y="0px" viewBox="0 0 45 45" style="enable-background:new 0 0 45 45;" xml:space="preserve" class="mdl-js">
<style type="text/css">
	.st0{clip-path:url(#SVGID_2_);}
	.st1{fill:url(#SVGID_3_);}
	.st2{fill:#FFFFFF;}
</style>
<g>
	<g>
		<defs>
			<circle id="SVGID_1_" cx="22.5" cy="22.5" r="19.2"/>
		</defs>
		<clipPath id="SVGID_2_">
			<use xlink:href="#SVGID_1_" style="overflow:visible;"/>
		</clipPath>
		<g class="st0">
			
				<radialGradient id="SVGID_3_" cx="-309.3035" cy="41.5231" r="47.2663" gradientTransform="matrix(-1 0 0 1 -273.8333 0)" gradientUnits="userSpaceOnUse">
				<stop offset="0" style="stop-color:#FEC053"/>
				<stop offset="0.3273" style="stop-color:#F2203E"/>
				<stop offset="0.6485" style="stop-color:#B729A8"/>
				<stop offset="1" style="stop-color:#5342D6"/>
			</radialGradient>
			<path class="st1" d="M2.6,35.7c0,3.5,2.9,6.4,6.4,6.4h26.4c3.5,0,6.4-2.9,6.4-6.4V9.3c0-3.5-2.9-6.4-6.4-6.4H9     c-3.5,0-6.4,2.9-6.4,6.4V35.7z"/>
		</g>
	</g>
	<g>
		<g>
			<path class="st2" d="M28.1,35.5H16.9c-4.1,0-7.4-3.3-7.4-7.4V16.9c0-4.1,3.3-7.4,7.4-7.4h11.2c4.1,0,7.4,3.3,7.4,7.4v11.2     C35.5,32.2,32.2,35.5,28.1,35.5z M16.9,11.7c-2.9,0-5.2,2.3-5.2,5.2v11.2c0,2.9,2.3,5.2,5.2,5.2h11.2c2.9,0,5.2-2.3,5.2-5.2V16.9     c0-2.9-2.3-5.2-5.2-5.2H16.9z"/>
		</g>
		<g>
			<path class="st2" d="M22.5,29.2c-3.7,0-6.7-3-6.7-6.7c0-3.7,3-6.7,6.7-6.7c3.7,0,6.7,3,6.7,6.7C29.2,26.2,26.2,29.2,22.5,29.2z      M22.5,18.1c-2.4,0-4.4,2-4.4,4.4s2,4.4,4.4,4.4c2.4,0,4.4-2,4.4-4.4S24.9,18.1,22.5,18.1z"/>
		</g>
		<g>
			<circle class="st2" cx="29.4" cy="15.5" r="1.6"/>
		</g>
	</g>
</g>
</svg>