<svg xmlns="http://www.w3.org/2000/svg" xmlns:xlink="http://www.w3.org/1999/xlink" version="1.1" id="Layer_1" x="0px" y="0px" viewBox="0 0 38.6 40.7" style="enable-background:new 0 0 38.6 40.7;" xml:space="preserve" class="mdl-js">
<style type="text/css">
	.st0{fill:#2F58A8;}
</style>
<g>
	<path class="st0" d="M2.4,3.5c0.9,0.3,1.8,0.8,2.7,1.2c10.3,4.7,20.5,9.5,30.8,14.2c0.1,0.1,0.2,0.2,0.3,0.2c-9.7,0-19.5,0-29.2,0   C5.4,13.9,3.9,8.7,2.4,3.5z"/>
	<path class="st0" d="M6.9,21.5c9.7,0,19.5,0,29.2,0c-0.1,0.1-0.2,0.2-0.2,0.2c-10.6,4.9-21.2,9.8-31.7,14.7C3.6,36.7,3,37,2.4,37.2   C3.9,32,5.4,26.7,6.9,21.5z"/>
</g>
</svg>