<svg version="1.1" id="Layer_1" xmlns="http://www.w3.org/2000/svg" xmlns:xlink="http://www.w3.org/1999/xlink" x="0px" y="0px"
	 viewBox="0 0 45 45" style="enable-background:new 0 0 45 45;" xml:space="preserve">
<style type="text/css">
	.st0{fill:#DA2828;}
	.st1{fill:#FFFFFF;}
</style>
<g>
	<circle class="st0" cx="22.7" cy="22.4" r="19.3"/>
	<g>
		<path class="st1" d="M15.4,8.7c0.5,0,1,0,1.5,0c0.3,1.3,0.6,2.5,0.9,3.8c0.3-1.2,0.6-2.5,0.9-3.8c0.5,0,1,0,1.5,0
			c-0.5,1.7-1,3.3-1.5,5c-0.1,0.3-0.2,0.6-0.2,0.9c0,1.3,0,2.5,0,3.8c-0.5,0-0.9,0-1.4,0c0-1.3,0-2.5,0-3.8c0-0.3-0.1-0.5-0.2-0.8
			C16.4,12.1,15.9,10.4,15.4,8.7z"/>
		<g>
			<path class="st1" d="M21.8,11.1c0.6-0.1,1.3,0.2,1.6,0.7c0.3,0.3,0.4,0.8,0.4,1.2c0,1.1,0,2.2,0,3.3c0,0.4,0,0.8-0.2,1.2
				c-0.3,0.7-1.1,1.1-1.8,1c-0.7,0-1.3-0.5-1.6-1.1c-0.2-0.3-0.2-0.7-0.2-1.1c0-1.2,0-2.3,0-3.5C20.1,12,20.9,11.1,21.8,11.1z
				 M21.8,12.4c-0.2,0.1-0.3,0.4-0.3,0.6c0,1.2,0,2.5,0,3.7c0,0.3,0.3,0.6,0.6,0.6c0.3,0,0.5-0.3,0.5-0.6c0-1.2,0-2.4,0-3.6
				c0-0.2,0-0.4-0.1-0.5C22.3,12.3,22,12.3,21.8,12.4z"/>
		</g>
		<path class="st1" d="M25,17.2c0-2,0-4,0-6c0.4,0,0.9,0,1.3,0c0,1.8,0,3.6,0,5.5c0,0.2,0,0.5,0.3,0.5c0.2,0,0.4-0.1,0.6-0.3
			c0.1-0.1,0.3-0.2,0.3-0.4c0-1.7,0-3.5,0-5.2c0.4,0,0.9,0,1.3,0c0,2.4,0,4.8,0,7.2c-0.4,0-0.9,0-1.3,0c0-0.3,0-0.5,0-0.8
			c-0.4,0.4-0.8,0.8-1.3,0.8c-0.3,0-0.7,0-0.9-0.3C25.1,17.9,25,17.6,25,17.2z"/>
		<g>
			<path class="st1" d="M18.7,20.3c3.9,0,7.7,0,11.6,0.1c0.7,0,1.5,0.3,2,0.8c0.7,0.6,1.1,1.6,1.1,2.5c0,2.6,0,5.1,0,7.7
				c0,0.6-0.1,1.3-0.5,1.8c-0.5,0.8-1.3,1.3-2.2,1.5c-0.6,0.1-1.1,0.1-1.7,0.1c-4.7,0.1-9.3,0.1-14,0c-0.9,0-1.8-0.4-2.4-1.2
				C12.2,33,12,32.2,12,31.4c0-2.5,0-5.1,0-7.6c0-0.4,0-0.7,0.1-1.1c0.2-0.8,0.8-1.6,1.6-2c0.5-0.3,1.1-0.4,1.6-0.4
				C16.5,20.3,17.6,20.3,18.7,20.3z M13.6,22.6c0,0.5,0,0.9,0,1.4c0.5,0,1,0,1.5,0c0,2.8,0,5.5,0,8.3c0.5,0,1,0,1.5,0
				c0-2.8,0-5.5,0-8.3c0.5,0,1,0,1.5,0c0-0.5,0-0.9,0-1.4C16.6,22.6,15.1,22.6,13.6,22.6z M23.1,22.6c0,3.2,0,6.4,0,9.6
				c0.4,0,0.9,0,1.3,0c0-0.2,0-0.4,0-0.5c0.2,0.2,0.5,0.5,0.8,0.6c0.4,0.1,1,0.1,1.3-0.3c0.3-0.3,0.4-0.8,0.4-1.3c0-1.2,0-2.5,0-3.7
				c0-0.5,0-1.1-0.4-1.5c-0.2-0.3-0.7-0.4-1-0.4c-0.4,0-0.8,0.3-1.1,0.7c0-1.1,0-2.1,0-3.2C24,22.6,23.6,22.6,23.1,22.6z M28.1,25.9
				c-0.2,0.4-0.3,0.8-0.3,1.2c0,1,0,2,0,3c0,0.5,0.1,1,0.4,1.5c0.3,0.5,0.9,0.8,1.5,0.8c0.6,0,1.2-0.2,1.6-0.6
				c0.4-0.6,0.4-1.4,0.4-2.1c-0.4,0-0.9,0-1.3,0c0,0.3,0,0.7,0,1c0,0.3-0.4,0.6-0.7,0.4c-0.3-0.1-0.4-0.3-0.4-0.6c0-0.6,0-1.2,0-1.7
				c0.8,0,1.7,0,2.5,0c0-0.6,0-1.2,0-1.8c0-0.5-0.1-1.1-0.4-1.5c-0.4-0.4-1-0.6-1.5-0.6C29,25,28.4,25.4,28.1,25.9z M18.1,25.1
				c0,1.8,0,3.7,0,5.5c0,0.5,0,1,0.2,1.4c0.2,0.3,0.7,0.4,1.1,0.2c0.4-0.1,0.8-0.5,1.1-0.8c0,0.3,0,0.5,0,0.8c0.4,0,0.9,0,1.3,0
				c0-2.4,0-4.7,0-7.1c-0.4,0-0.9,0-1.3,0c0,1.6,0,3.2,0,4.8c0,0.2,0,0.4,0,0.6c-0.2,0.3-0.5,0.6-0.8,0.5c-0.3,0-0.3-0.3-0.3-0.6
				c0-1.8,0-3.6,0-5.4C19,25.1,18.6,25.1,18.1,25.1z"/>
		</g>
		<path class="st1" d="M24.9,26.2c0.2,0,0.3,0,0.5,0.1c0.2,0.2,0.2,0.5,0.2,0.7c0,1.2,0,2.4,0,3.5c0,0.2,0,0.5-0.2,0.6
			c-0.2,0.1-0.5,0.1-0.7-0.1c-0.1-0.1-0.2-0.1-0.2-0.3c0-1.4,0-2.8,0-4.2C24.4,26.4,24.7,26.2,24.9,26.2z"/>
		<path class="st1" d="M29.2,26.7c0-0.3,0.3-0.6,0.6-0.5c0.3,0,0.5,0.3,0.5,0.5c0,0.3,0,0.7,0,1c-0.4,0-0.8,0-1.2,0
			C29.2,27.4,29.2,27,29.2,26.7z"/>
	</g>
</g>
</svg>
